<mxfile host="app.diagrams.net" modified="2024-08-12T12:29:36.244Z" agent="Mozilla/5.0 (Windows NT 10.0; Win64; x64) AppleWebKit/537.36 (KHTML, like Gecko) Chrome/127.0.0.0 Safari/537.36" etag="hz3ZS6YAZ86g1byJJ-Ia" version="21.7.5" type="device">
  <diagram name="Page-1" id="i6gfZ9pMjnB3nOJlKn8k">
    <mxGraphModel dx="794" dy="412" grid="1" gridSize="10" guides="1" tooltips="1" connect="1" arrows="1" fold="1" page="1" pageScale="1" pageWidth="827" pageHeight="1169" math="0" shadow="0">
      <root>
        <mxCell id="0" />
        <mxCell id="1" parent="0" />
        <mxCell id="RUuA4V9LKKbMewalx2lY-45" value="" style="rounded=0;whiteSpace=wrap;html=1;" vertex="1" parent="1">
          <mxGeometry x="140" y="60" width="880" height="680" as="geometry" />
        </mxCell>
        <mxCell id="RUuA4V9LKKbMewalx2lY-5" style="edgeStyle=orthogonalEdgeStyle;rounded=0;orthogonalLoop=1;jettySize=auto;html=1;exitX=1;exitY=0.3333333333333333;exitDx=0;exitDy=0;exitPerimeter=0;entryX=0;entryY=0.5;entryDx=0;entryDy=0;" edge="1" parent="1" source="RUuA4V9LKKbMewalx2lY-1" target="RUuA4V9LKKbMewalx2lY-2">
          <mxGeometry relative="1" as="geometry">
            <mxPoint x="100" y="350" as="targetPoint" />
          </mxGeometry>
        </mxCell>
        <mxCell id="RUuA4V9LKKbMewalx2lY-1" value="Admin/User" style="shape=umlActor;verticalLabelPosition=bottom;verticalAlign=top;html=1;outlineConnect=0;" vertex="1" parent="1">
          <mxGeometry x="30" y="335" width="30" height="60" as="geometry" />
        </mxCell>
        <mxCell id="RUuA4V9LKKbMewalx2lY-2" value="Sale Management" style="ellipse;whiteSpace=wrap;html=1;" vertex="1" parent="1">
          <mxGeometry x="180" y="330" width="120" height="55" as="geometry" />
        </mxCell>
        <mxCell id="RUuA4V9LKKbMewalx2lY-6" value="&amp;lt;&amp;lt;include&amp;gt;&amp;gt;" style="html=1;verticalAlign=bottom;endArrow=open;dashed=1;endSize=8;curved=0;rounded=0;exitX=0.5;exitY=0;exitDx=0;exitDy=0;entryX=0;entryY=0.5;entryDx=0;entryDy=0;" edge="1" parent="1" source="RUuA4V9LKKbMewalx2lY-2" target="RUuA4V9LKKbMewalx2lY-7">
          <mxGeometry x="0.0291" y="-2" relative="1" as="geometry">
            <mxPoint x="250" y="300.52631578947376" as="sourcePoint" />
            <mxPoint x="390" y="330" as="targetPoint" />
            <mxPoint x="1" as="offset" />
          </mxGeometry>
        </mxCell>
        <mxCell id="RUuA4V9LKKbMewalx2lY-7" value="Login" style="ellipse;whiteSpace=wrap;html=1;" vertex="1" parent="1">
          <mxGeometry x="370" y="230" width="100" height="50" as="geometry" />
        </mxCell>
        <mxCell id="RUuA4V9LKKbMewalx2lY-9" value="&amp;lt;&amp;lt;extend&amp;gt;&amp;gt;" style="html=1;verticalAlign=bottom;endArrow=open;dashed=1;endSize=8;curved=0;rounded=0;exitX=0;exitY=0.5;exitDx=0;exitDy=0;" edge="1" parent="1" target="RUuA4V9LKKbMewalx2lY-13" source="RUuA4V9LKKbMewalx2lY-10">
          <mxGeometry x="0.0291" y="-2" relative="1" as="geometry">
            <mxPoint x="310" y="360" as="sourcePoint" />
            <mxPoint x="400" y="340" as="targetPoint" />
            <mxPoint x="1" as="offset" />
          </mxGeometry>
        </mxCell>
        <mxCell id="RUuA4V9LKKbMewalx2lY-10" value="Add new customer" style="ellipse;whiteSpace=wrap;html=1;" vertex="1" parent="1">
          <mxGeometry x="610" y="335" width="100" height="50" as="geometry" />
        </mxCell>
        <mxCell id="RUuA4V9LKKbMewalx2lY-11" value="Choose existed customer&amp;nbsp;" style="ellipse;whiteSpace=wrap;html=1;" vertex="1" parent="1">
          <mxGeometry x="620" y="410" width="100" height="50" as="geometry" />
        </mxCell>
        <mxCell id="RUuA4V9LKKbMewalx2lY-12" value="&amp;lt;&amp;lt;extend&amp;gt;&amp;gt;" style="html=1;verticalAlign=bottom;endArrow=open;dashed=1;endSize=8;curved=0;rounded=0;exitX=0;exitY=0.5;exitDx=0;exitDy=0;entryX=1;entryY=1;entryDx=0;entryDy=0;" edge="1" parent="1" source="RUuA4V9LKKbMewalx2lY-11" target="RUuA4V9LKKbMewalx2lY-13">
          <mxGeometry x="0.0291" y="-2" relative="1" as="geometry">
            <mxPoint x="394" y="422" as="sourcePoint" />
            <mxPoint x="280" y="420" as="targetPoint" />
            <mxPoint x="1" as="offset" />
          </mxGeometry>
        </mxCell>
        <mxCell id="RUuA4V9LKKbMewalx2lY-13" value="Add customer infomation" style="ellipse;whiteSpace=wrap;html=1;" vertex="1" parent="1">
          <mxGeometry x="397" y="335" width="100" height="50" as="geometry" />
        </mxCell>
        <mxCell id="RUuA4V9LKKbMewalx2lY-16" value="&amp;lt;&amp;lt;include&amp;gt;&amp;gt;" style="html=1;verticalAlign=bottom;endArrow=open;dashed=1;endSize=8;curved=0;rounded=0;exitX=1;exitY=0.5;exitDx=0;exitDy=0;entryX=0;entryY=0.5;entryDx=0;entryDy=0;" edge="1" parent="1" source="RUuA4V9LKKbMewalx2lY-2" target="RUuA4V9LKKbMewalx2lY-13">
          <mxGeometry x="0.0291" y="-2" relative="1" as="geometry">
            <mxPoint x="250" y="340" as="sourcePoint" />
            <mxPoint x="380" y="265" as="targetPoint" />
            <mxPoint x="1" as="offset" />
          </mxGeometry>
        </mxCell>
        <mxCell id="RUuA4V9LKKbMewalx2lY-18" value="QR code scan" style="ellipse;whiteSpace=wrap;html=1;" vertex="1" parent="1">
          <mxGeometry x="610" y="250" width="100" height="50" as="geometry" />
        </mxCell>
        <mxCell id="RUuA4V9LKKbMewalx2lY-19" value="&amp;lt;&amp;lt;extend&amp;gt;&amp;gt;" style="html=1;verticalAlign=bottom;endArrow=open;dashed=1;endSize=8;curved=0;rounded=0;exitX=0;exitY=0.5;exitDx=0;exitDy=0;entryX=1;entryY=0;entryDx=0;entryDy=0;" edge="1" parent="1" source="RUuA4V9LKKbMewalx2lY-18" target="RUuA4V9LKKbMewalx2lY-13">
          <mxGeometry x="0.0291" y="-2" relative="1" as="geometry">
            <mxPoint x="603" y="280" as="sourcePoint" />
            <mxPoint x="490" y="280" as="targetPoint" />
            <mxPoint x="1" as="offset" />
          </mxGeometry>
        </mxCell>
        <mxCell id="RUuA4V9LKKbMewalx2lY-22" value="Add Products" style="ellipse;whiteSpace=wrap;html=1;" vertex="1" parent="1">
          <mxGeometry x="414" y="490" width="100" height="50" as="geometry" />
        </mxCell>
        <mxCell id="RUuA4V9LKKbMewalx2lY-23" value="&amp;lt;&amp;lt;include&amp;gt;&amp;gt;" style="html=1;verticalAlign=bottom;endArrow=open;dashed=1;endSize=8;curved=0;rounded=0;exitX=1;exitY=1;exitDx=0;exitDy=0;entryX=0;entryY=0.5;entryDx=0;entryDy=0;" edge="1" parent="1" target="RUuA4V9LKKbMewalx2lY-22" source="RUuA4V9LKKbMewalx2lY-2">
          <mxGeometry x="0.0291" y="-2" relative="1" as="geometry">
            <mxPoint x="320" y="378" as="sourcePoint" />
            <mxPoint x="400" y="285" as="targetPoint" />
            <mxPoint x="1" as="offset" />
          </mxGeometry>
        </mxCell>
        <mxCell id="RUuA4V9LKKbMewalx2lY-24" value="Choose Product" style="ellipse;whiteSpace=wrap;html=1;" vertex="1" parent="1">
          <mxGeometry x="620" y="490" width="100" height="50" as="geometry" />
        </mxCell>
        <mxCell id="RUuA4V9LKKbMewalx2lY-25" value="&amp;lt;&amp;lt;include&amp;gt;&amp;gt;" style="html=1;verticalAlign=bottom;endArrow=open;dashed=1;endSize=8;curved=0;rounded=0;exitX=1;exitY=0.5;exitDx=0;exitDy=0;entryX=0;entryY=0.5;entryDx=0;entryDy=0;" edge="1" parent="1" target="RUuA4V9LKKbMewalx2lY-24" source="RUuA4V9LKKbMewalx2lY-22">
          <mxGeometry x="0.0291" y="-2" relative="1" as="geometry">
            <mxPoint x="293" y="387" as="sourcePoint" />
            <mxPoint x="410" y="295" as="targetPoint" />
            <mxPoint x="1" as="offset" />
          </mxGeometry>
        </mxCell>
        <mxCell id="RUuA4V9LKKbMewalx2lY-28" value="Choose Quantity" style="ellipse;whiteSpace=wrap;html=1;" vertex="1" parent="1">
          <mxGeometry x="620" y="570" width="100" height="50" as="geometry" />
        </mxCell>
        <mxCell id="RUuA4V9LKKbMewalx2lY-30" value="&amp;lt;&amp;lt;include&amp;gt;&amp;gt;" style="html=1;verticalAlign=bottom;endArrow=open;dashed=1;endSize=8;curved=0;rounded=0;exitX=1;exitY=1;exitDx=0;exitDy=0;entryX=0;entryY=0.5;entryDx=0;entryDy=0;" edge="1" parent="1" source="RUuA4V9LKKbMewalx2lY-22" target="RUuA4V9LKKbMewalx2lY-28">
          <mxGeometry x="0.0291" y="-2" relative="1" as="geometry">
            <mxPoint x="524" y="525" as="sourcePoint" />
            <mxPoint x="630" y="525" as="targetPoint" />
            <mxPoint x="1" as="offset" />
          </mxGeometry>
        </mxCell>
        <mxCell id="RUuA4V9LKKbMewalx2lY-31" value="Search product" style="ellipse;whiteSpace=wrap;html=1;" vertex="1" parent="1">
          <mxGeometry x="810" y="490" width="100" height="50" as="geometry" />
        </mxCell>
        <mxCell id="RUuA4V9LKKbMewalx2lY-34" value="Search Customer" style="ellipse;whiteSpace=wrap;html=1;" vertex="1" parent="1">
          <mxGeometry x="810" y="410" width="100" height="50" as="geometry" />
        </mxCell>
        <mxCell id="RUuA4V9LKKbMewalx2lY-36" value="&amp;lt;&amp;lt;extend&amp;gt;&amp;gt;" style="html=1;verticalAlign=bottom;endArrow=open;dashed=1;endSize=8;curved=0;rounded=0;exitX=0;exitY=0.5;exitDx=0;exitDy=0;entryX=1;entryY=0.5;entryDx=0;entryDy=0;" edge="1" parent="1" source="RUuA4V9LKKbMewalx2lY-34" target="RUuA4V9LKKbMewalx2lY-11">
          <mxGeometry x="0.0291" y="-2" relative="1" as="geometry">
            <mxPoint x="823" y="408.82" as="sourcePoint" />
            <mxPoint x="710" y="408.82" as="targetPoint" />
            <mxPoint x="1" as="offset" />
          </mxGeometry>
        </mxCell>
        <mxCell id="RUuA4V9LKKbMewalx2lY-37" value="&amp;lt;&amp;lt;extend&amp;gt;&amp;gt;" style="html=1;verticalAlign=bottom;endArrow=open;dashed=1;endSize=8;curved=0;rounded=0;exitX=0;exitY=0.5;exitDx=0;exitDy=0;entryX=1;entryY=0.5;entryDx=0;entryDy=0;" edge="1" parent="1" source="RUuA4V9LKKbMewalx2lY-31" target="RUuA4V9LKKbMewalx2lY-24">
          <mxGeometry x="0.0291" y="-2" relative="1" as="geometry">
            <mxPoint x="810.0000000000039" y="560" as="sourcePoint" />
            <mxPoint x="719.9999999999995" y="560" as="targetPoint" />
            <mxPoint x="1" as="offset" />
          </mxGeometry>
        </mxCell>
        <mxCell id="RUuA4V9LKKbMewalx2lY-39" value="payment process" style="ellipse;whiteSpace=wrap;html=1;" vertex="1" parent="1">
          <mxGeometry x="297" y="530" width="100" height="50" as="geometry" />
        </mxCell>
        <mxCell id="RUuA4V9LKKbMewalx2lY-40" value="&amp;lt;&amp;lt;include&amp;gt;&amp;gt;" style="html=1;verticalAlign=bottom;endArrow=open;dashed=1;endSize=8;curved=0;rounded=0;exitX=0.5;exitY=1;exitDx=0;exitDy=0;entryX=0.5;entryY=0;entryDx=0;entryDy=0;" edge="1" parent="1" source="RUuA4V9LKKbMewalx2lY-2" target="RUuA4V9LKKbMewalx2lY-39">
          <mxGeometry x="0.0291" y="-2" relative="1" as="geometry">
            <mxPoint x="293" y="387" as="sourcePoint" />
            <mxPoint x="424" y="525" as="targetPoint" />
            <mxPoint x="1" as="offset" />
          </mxGeometry>
        </mxCell>
        <mxCell id="RUuA4V9LKKbMewalx2lY-41" value="Choose payment method" style="ellipse;whiteSpace=wrap;html=1;" vertex="1" parent="1">
          <mxGeometry x="480" y="610" width="110" height="60" as="geometry" />
        </mxCell>
        <mxCell id="RUuA4V9LKKbMewalx2lY-42" value="&amp;lt;&amp;lt;include&amp;gt;&amp;gt;" style="html=1;verticalAlign=bottom;endArrow=open;dashed=1;endSize=8;curved=0;rounded=0;exitX=1;exitY=1;exitDx=0;exitDy=0;entryX=0;entryY=0.5;entryDx=0;entryDy=0;" edge="1" parent="1" source="RUuA4V9LKKbMewalx2lY-39" target="RUuA4V9LKKbMewalx2lY-41">
          <mxGeometry x="0.0291" y="-2" relative="1" as="geometry">
            <mxPoint x="366" y="620" as="sourcePoint" />
            <mxPoint x="497" y="758" as="targetPoint" />
            <mxPoint x="1" as="offset" />
          </mxGeometry>
        </mxCell>
        <mxCell id="RUuA4V9LKKbMewalx2lY-43" value="payment confirm" style="ellipse;whiteSpace=wrap;html=1;" vertex="1" parent="1">
          <mxGeometry x="297" y="630" width="100" height="50" as="geometry" />
        </mxCell>
        <mxCell id="RUuA4V9LKKbMewalx2lY-44" value="&amp;lt;&amp;lt;include&amp;gt;&amp;gt;" style="html=1;verticalAlign=bottom;endArrow=open;dashed=1;endSize=8;curved=0;rounded=0;exitX=0.5;exitY=1;exitDx=0;exitDy=0;entryX=0.5;entryY=0;entryDx=0;entryDy=0;" edge="1" parent="1" source="RUuA4V9LKKbMewalx2lY-39" target="RUuA4V9LKKbMewalx2lY-43">
          <mxGeometry x="0.0291" y="-2" relative="1" as="geometry">
            <mxPoint x="392" y="583" as="sourcePoint" />
            <mxPoint x="490" y="650" as="targetPoint" />
            <mxPoint x="1" as="offset" />
          </mxGeometry>
        </mxCell>
      </root>
    </mxGraphModel>
  </diagram>
</mxfile>
